<mxfile host="app.diagrams.net" modified="2020-10-12T10:31:07.841Z" agent="5.0 (Windows NT 10.0; Win64; x64) AppleWebKit/537.36 (KHTML, like Gecko) Chrome/80.0.3987.122 Safari/537.36" etag="DE37Rx0DroN8DZhKC8ao" version="13.7.9" type="github">
  <diagram id="R2lEEEUBdFMjLlhIrx00" name="Page-1">
    <mxGraphModel dx="593" dy="337" grid="1" gridSize="10" guides="1" tooltips="1" connect="1" arrows="1" fold="1" page="1" pageScale="1" pageWidth="850" pageHeight="1100" math="0" shadow="0" extFonts="Permanent Marker^https://fonts.googleapis.com/css?family=Permanent+Marker">
      <root>
        <mxCell id="0" />
        <mxCell id="1" parent="0" />
        <mxCell id="Dq8pUPrlYOhNmV8d48KN-10" value="" style="rounded=1;whiteSpace=wrap;html=1;opacity=50;" vertex="1" parent="1">
          <mxGeometry x="40" y="30" width="500" height="370" as="geometry" />
        </mxCell>
        <mxCell id="Dq8pUPrlYOhNmV8d48KN-1" value="Warehouse(W)" style="rounded=1;whiteSpace=wrap;html=1;fillColor=#dae8fc;strokeColor=#6c8ebf;" vertex="1" parent="1">
          <mxGeometry x="65" y="260" width="120" height="60" as="geometry" />
        </mxCell>
        <mxCell id="Dq8pUPrlYOhNmV8d48KN-2" value="Lumberjack(L)" style="rounded=1;whiteSpace=wrap;html=1;" vertex="1" parent="1">
          <mxGeometry x="70" y="50" width="90" height="50" as="geometry" />
        </mxCell>
        <mxCell id="Dq8pUPrlYOhNmV8d48KN-3" value="Guard(G)" style="rounded=1;whiteSpace=wrap;html=1;" vertex="1" parent="1">
          <mxGeometry x="390" y="310" width="120" height="60" as="geometry" />
        </mxCell>
        <mxCell id="Dq8pUPrlYOhNmV8d48KN-4" value="Fisherman(F)" style="rounded=1;whiteSpace=wrap;html=1;" vertex="1" parent="1">
          <mxGeometry x="390" y="210" width="120" height="60" as="geometry" />
        </mxCell>
        <mxCell id="Dq8pUPrlYOhNmV8d48KN-5" value="Delivery(W -&amp;gt; F)" style="endArrow=classic;html=1;exitX=1;exitY=0.5;exitDx=0;exitDy=0;entryX=0;entryY=0.5;entryDx=0;entryDy=0;" edge="1" parent="1" source="Dq8pUPrlYOhNmV8d48KN-1" target="Dq8pUPrlYOhNmV8d48KN-4">
          <mxGeometry width="50" height="50" relative="1" as="geometry">
            <mxPoint x="390" y="260" as="sourcePoint" />
            <mxPoint x="440" y="210" as="targetPoint" />
          </mxGeometry>
        </mxCell>
        <mxCell id="Dq8pUPrlYOhNmV8d48KN-7" value="Pickup(L -&amp;gt; W)" style="endArrow=classic;html=1;exitX=0.5;exitY=1;exitDx=0;exitDy=0;entryX=0.5;entryY=0;entryDx=0;entryDy=0;" edge="1" parent="1" source="Dq8pUPrlYOhNmV8d48KN-2" target="Dq8pUPrlYOhNmV8d48KN-1">
          <mxGeometry width="50" height="50" relative="1" as="geometry">
            <mxPoint x="390" y="260" as="sourcePoint" />
            <mxPoint x="440" y="210" as="targetPoint" />
          </mxGeometry>
        </mxCell>
        <mxCell id="Dq8pUPrlYOhNmV8d48KN-8" value="Base layout, two existing tasks" style="text;html=1;strokeColor=none;fillColor=none;align=center;verticalAlign=middle;whiteSpace=wrap;rounded=0;" vertex="1" parent="1">
          <mxGeometry x="240" y="70" width="110" height="40" as="geometry" />
        </mxCell>
        <mxCell id="Dq8pUPrlYOhNmV8d48KN-9" style="edgeStyle=orthogonalEdgeStyle;rounded=0;orthogonalLoop=1;jettySize=auto;html=1;exitX=0.5;exitY=1;exitDx=0;exitDy=0;" edge="1" parent="1" source="Dq8pUPrlYOhNmV8d48KN-8" target="Dq8pUPrlYOhNmV8d48KN-8">
          <mxGeometry relative="1" as="geometry" />
        </mxCell>
        <mxCell id="Dq8pUPrlYOhNmV8d48KN-11" value="" style="rounded=1;whiteSpace=wrap;html=1;opacity=50;" vertex="1" parent="1">
          <mxGeometry x="40" y="460" width="500" height="370" as="geometry" />
        </mxCell>
        <mxCell id="Dq8pUPrlYOhNmV8d48KN-12" value="Warehouse(W)" style="rounded=1;whiteSpace=wrap;html=1;fillColor=#dae8fc;strokeColor=#6c8ebf;" vertex="1" parent="1">
          <mxGeometry x="65" y="690" width="120" height="60" as="geometry" />
        </mxCell>
        <mxCell id="Dq8pUPrlYOhNmV8d48KN-13" value="Lumberjack(L)" style="rounded=1;whiteSpace=wrap;html=1;" vertex="1" parent="1">
          <mxGeometry x="70" y="480" width="90" height="50" as="geometry" />
        </mxCell>
        <mxCell id="Dq8pUPrlYOhNmV8d48KN-14" value="Guard(G)" style="rounded=1;whiteSpace=wrap;html=1;" vertex="1" parent="1">
          <mxGeometry x="390" y="740" width="120" height="60" as="geometry" />
        </mxCell>
        <mxCell id="Dq8pUPrlYOhNmV8d48KN-15" value="Fisherman(F)" style="rounded=1;whiteSpace=wrap;html=1;" vertex="1" parent="1">
          <mxGeometry x="390" y="640" width="120" height="60" as="geometry" />
        </mxCell>
        <mxCell id="Dq8pUPrlYOhNmV8d48KN-16" value="Delivery(W -&amp;gt; F)" style="endArrow=classic;html=1;entryX=0;entryY=0.5;entryDx=0;entryDy=0;exitX=0;exitY=0.5;exitDx=0;exitDy=0;" edge="1" parent="1" source="Dq8pUPrlYOhNmV8d48KN-27" target="Dq8pUPrlYOhNmV8d48KN-15">
          <mxGeometry width="50" height="50" relative="1" as="geometry">
            <mxPoint x="390" y="690" as="sourcePoint" />
            <mxPoint x="440" y="640" as="targetPoint" />
          </mxGeometry>
        </mxCell>
        <mxCell id="Dq8pUPrlYOhNmV8d48KN-17" value="Pickup(L -&amp;gt; W)" style="endArrow=classic;html=1;exitX=0.5;exitY=1;exitDx=0;exitDy=0;entryX=0.5;entryY=0;entryDx=0;entryDy=0;" edge="1" parent="1" source="Dq8pUPrlYOhNmV8d48KN-13" target="Dq8pUPrlYOhNmV8d48KN-12">
          <mxGeometry width="50" height="50" relative="1" as="geometry">
            <mxPoint x="390" y="690" as="sourcePoint" />
            <mxPoint x="440" y="640" as="targetPoint" />
          </mxGeometry>
        </mxCell>
        <mxCell id="Dq8pUPrlYOhNmV8d48KN-18" value="Adding new delivery task:&lt;br&gt;W -&amp;gt; G" style="text;html=1;strokeColor=none;fillColor=none;align=center;verticalAlign=middle;whiteSpace=wrap;rounded=0;" vertex="1" parent="1">
          <mxGeometry x="240" y="500" width="110" height="40" as="geometry" />
        </mxCell>
        <mxCell id="Dq8pUPrlYOhNmV8d48KN-19" style="edgeStyle=orthogonalEdgeStyle;rounded=0;orthogonalLoop=1;jettySize=auto;html=1;exitX=0.5;exitY=1;exitDx=0;exitDy=0;" edge="1" parent="1" source="Dq8pUPrlYOhNmV8d48KN-18" target="Dq8pUPrlYOhNmV8d48KN-18">
          <mxGeometry relative="1" as="geometry" />
        </mxCell>
        <mxCell id="Dq8pUPrlYOhNmV8d48KN-21" value="Taskorder:&lt;br&gt;Pickup(L -&amp;gt; W)&lt;br&gt;Delivery(W -&amp;gt; F)" style="text;html=1;strokeColor=none;fillColor=none;align=center;verticalAlign=middle;whiteSpace=wrap;rounded=0;opacity=50;" vertex="1" parent="1">
          <mxGeometry x="390" y="110" width="100" height="40" as="geometry" />
        </mxCell>
        <mxCell id="Dq8pUPrlYOhNmV8d48KN-22" value="Taskorder:&lt;br&gt;Pickup(L -&amp;gt; W)&lt;br&gt;Delivery(W -&amp;gt; F)&lt;br&gt;Delivery(W -&amp;gt; G)" style="text;html=1;strokeColor=none;fillColor=none;align=center;verticalAlign=middle;whiteSpace=wrap;rounded=0;opacity=50;" vertex="1" parent="1">
          <mxGeometry x="390" y="530" width="100" height="40" as="geometry" />
        </mxCell>
        <mxCell id="Dq8pUPrlYOhNmV8d48KN-23" value="Delivery(W-&amp;gt;G)" style="endArrow=classic;html=1;entryX=0;entryY=0.5;entryDx=0;entryDy=0;fillColor=#d5e8d4;strokeColor=#82b366;exitX=1;exitY=0.5;exitDx=0;exitDy=0;" edge="1" parent="1" source="Dq8pUPrlYOhNmV8d48KN-12" target="Dq8pUPrlYOhNmV8d48KN-14">
          <mxGeometry width="50" height="50" relative="1" as="geometry">
            <mxPoint x="190" y="720" as="sourcePoint" />
            <mxPoint x="450" y="600" as="targetPoint" />
          </mxGeometry>
        </mxCell>
        <mxCell id="Dq8pUPrlYOhNmV8d48KN-27" value="" style="ellipse;whiteSpace=wrap;html=1;aspect=fixed;opacity=50;" vertex="1" parent="1">
          <mxGeometry x="180" y="710" width="20" height="20" as="geometry" />
        </mxCell>
        <mxCell id="Dq8pUPrlYOhNmV8d48KN-29" value="Very close source and nearby targets" style="text;html=1;strokeColor=none;fillColor=none;align=center;verticalAlign=middle;whiteSpace=wrap;rounded=0;opacity=50;" vertex="1" parent="1">
          <mxGeometry x="185" y="780" width="130" height="30" as="geometry" />
        </mxCell>
      </root>
    </mxGraphModel>
  </diagram>
</mxfile>
